<mxfile host="app.diagrams.net" modified="2022-10-12T16:35:01.982Z" agent="5.0 (Windows NT 10.0; Win64; x64) AppleWebKit/537.36 (KHTML, like Gecko) Chrome/106.0.0.0 Safari/537.36" etag="PsLenbK2mjhWVEi4mOfw" version="20.4.0" type="github">
  <diagram id="619u8XmQAOIZvu5HOyKQ" name="Page-1">
    <mxGraphModel dx="845" dy="1913" grid="1" gridSize="10" guides="1" tooltips="1" connect="1" arrows="1" fold="1" page="1" pageScale="1" pageWidth="850" pageHeight="1100" math="0" shadow="0">
      <root>
        <mxCell id="0" />
        <mxCell id="1" parent="0" />
        <mxCell id="bt_qDzs2_kp6tkQ8OhXv-4" value="Mulai" style="ellipse;whiteSpace=wrap;html=1;" vertex="1" parent="1">
          <mxGeometry x="1130" y="-1090" width="120" height="80" as="geometry" />
        </mxCell>
        <mxCell id="bt_qDzs2_kp6tkQ8OhXv-6" value="" style="endArrow=classic;html=1;rounded=0;" edge="1" parent="1">
          <mxGeometry width="50" height="50" relative="1" as="geometry">
            <mxPoint x="1189.47" y="-1010" as="sourcePoint" />
            <mxPoint x="1190" y="-960" as="targetPoint" />
          </mxGeometry>
        </mxCell>
        <mxCell id="bt_qDzs2_kp6tkQ8OhXv-85" value="" style="edgeStyle=orthogonalEdgeStyle;rounded=0;orthogonalLoop=1;jettySize=auto;html=1;fontSize=10;" edge="1" parent="1" source="bt_qDzs2_kp6tkQ8OhXv-7" target="bt_qDzs2_kp6tkQ8OhXv-11">
          <mxGeometry relative="1" as="geometry" />
        </mxCell>
        <mxCell id="bt_qDzs2_kp6tkQ8OhXv-172" value="True" style="edgeLabel;html=1;align=center;verticalAlign=middle;resizable=0;points=[];fontSize=10;" vertex="1" connectable="0" parent="bt_qDzs2_kp6tkQ8OhXv-85">
          <mxGeometry x="0.0982" y="1" relative="1" as="geometry">
            <mxPoint x="28" y="-1" as="offset" />
          </mxGeometry>
        </mxCell>
        <mxCell id="bt_qDzs2_kp6tkQ8OhXv-177" value="" style="edgeStyle=orthogonalEdgeStyle;rounded=0;orthogonalLoop=1;jettySize=auto;html=1;fontSize=10;" edge="1" parent="1" source="bt_qDzs2_kp6tkQ8OhXv-7" target="bt_qDzs2_kp6tkQ8OhXv-176">
          <mxGeometry relative="1" as="geometry" />
        </mxCell>
        <mxCell id="bt_qDzs2_kp6tkQ8OhXv-179" value="&lt;font style=&quot;font-size: 10px;&quot;&gt;False&lt;/font&gt;" style="edgeLabel;html=1;align=center;verticalAlign=middle;resizable=0;points=[];fontSize=8;" vertex="1" connectable="0" parent="bt_qDzs2_kp6tkQ8OhXv-177">
          <mxGeometry x="0.0909" y="-1" relative="1" as="geometry">
            <mxPoint x="-12" y="-1" as="offset" />
          </mxGeometry>
        </mxCell>
        <mxCell id="bt_qDzs2_kp6tkQ8OhXv-7" value="Username&lt;br&gt;(dzaky rafi&#39;annur muhammad)&lt;br&gt;Password&lt;br&gt;(2211016210004)" style="rhombus;whiteSpace=wrap;html=1;fontSize=10;" vertex="1" parent="1">
          <mxGeometry x="1112.5" y="-850" width="155" height="155" as="geometry" />
        </mxCell>
        <mxCell id="bt_qDzs2_kp6tkQ8OhXv-10" value="" style="endArrow=classic;html=1;rounded=0;" edge="1" parent="1">
          <mxGeometry width="50" height="50" relative="1" as="geometry">
            <mxPoint x="1189.47" y="-900" as="sourcePoint" />
            <mxPoint x="1190" y="-850" as="targetPoint" />
          </mxGeometry>
        </mxCell>
        <mxCell id="bt_qDzs2_kp6tkQ8OhXv-86" value="" style="edgeStyle=orthogonalEdgeStyle;rounded=0;orthogonalLoop=1;jettySize=auto;html=1;fontSize=10;" edge="1" parent="1" source="bt_qDzs2_kp6tkQ8OhXv-11" target="bt_qDzs2_kp6tkQ8OhXv-20">
          <mxGeometry relative="1" as="geometry" />
        </mxCell>
        <mxCell id="bt_qDzs2_kp6tkQ8OhXv-11" value="Menu Utama&lt;br&gt;(1 - 3)" style="rounded=1;whiteSpace=wrap;html=1;fontSize=10;" vertex="1" parent="1">
          <mxGeometry x="300" y="-802.5" width="120" height="60" as="geometry" />
        </mxCell>
        <mxCell id="bt_qDzs2_kp6tkQ8OhXv-20" value="&lt;span style=&quot;font-size: 12px;&quot;&gt;Input Menu&lt;/span&gt;" style="shape=parallelogram;perimeter=parallelogramPerimeter;whiteSpace=wrap;html=1;fixedSize=1;fontSize=10;rounded=1;" vertex="1" parent="1">
          <mxGeometry x="300" y="-680" width="120" height="60" as="geometry" />
        </mxCell>
        <mxCell id="bt_qDzs2_kp6tkQ8OhXv-22" value="&lt;span style=&quot;font-size: 12px;&quot;&gt;Input&lt;/span&gt;&lt;br style=&quot;font-size: 12px;&quot;&gt;&lt;span style=&quot;font-size: 12px;&quot;&gt;Username&lt;/span&gt;&lt;br style=&quot;font-size: 12px;&quot;&gt;&lt;span style=&quot;font-size: 12px;&quot;&gt;&amp;amp;&lt;/span&gt;&lt;br style=&quot;font-size: 12px;&quot;&gt;&lt;span style=&quot;font-size: 12px;&quot;&gt;Password&lt;/span&gt;" style="shape=parallelogram;perimeter=parallelogramPerimeter;whiteSpace=wrap;html=1;fixedSize=1;fontSize=10;rounded=1;" vertex="1" parent="1">
          <mxGeometry x="1130" y="-960" width="120" height="60" as="geometry" />
        </mxCell>
        <mxCell id="bt_qDzs2_kp6tkQ8OhXv-82" value="" style="edgeStyle=orthogonalEdgeStyle;rounded=0;orthogonalLoop=1;jettySize=auto;html=1;fontSize=10;" edge="1" parent="1" source="bt_qDzs2_kp6tkQ8OhXv-23" target="bt_qDzs2_kp6tkQ8OhXv-67">
          <mxGeometry relative="1" as="geometry" />
        </mxCell>
        <mxCell id="bt_qDzs2_kp6tkQ8OhXv-142" value="False" style="edgeLabel;html=1;align=center;verticalAlign=middle;resizable=0;points=[];fontSize=10;" vertex="1" connectable="0" parent="bt_qDzs2_kp6tkQ8OhXv-82">
          <mxGeometry x="-0.4069" y="2" relative="1" as="geometry">
            <mxPoint x="121" y="2" as="offset" />
          </mxGeometry>
        </mxCell>
        <mxCell id="bt_qDzs2_kp6tkQ8OhXv-23" value="Menu == 1&lt;br&gt;Aritmatika" style="rhombus;whiteSpace=wrap;html=1;fontSize=10;rounded=1;" vertex="1" parent="1">
          <mxGeometry x="500" y="-690" width="80" height="80" as="geometry" />
        </mxCell>
        <mxCell id="bt_qDzs2_kp6tkQ8OhXv-71" value="" style="edgeStyle=orthogonalEdgeStyle;rounded=0;orthogonalLoop=1;jettySize=auto;html=1;fontSize=10;" edge="1" parent="1" source="bt_qDzs2_kp6tkQ8OhXv-67" target="bt_qDzs2_kp6tkQ8OhXv-70">
          <mxGeometry relative="1" as="geometry" />
        </mxCell>
        <mxCell id="bt_qDzs2_kp6tkQ8OhXv-168" value="" style="edgeStyle=orthogonalEdgeStyle;rounded=0;orthogonalLoop=1;jettySize=auto;html=1;fontSize=10;" edge="1" parent="1" source="bt_qDzs2_kp6tkQ8OhXv-70" target="bt_qDzs2_kp6tkQ8OhXv-167">
          <mxGeometry relative="1" as="geometry" />
        </mxCell>
        <mxCell id="bt_qDzs2_kp6tkQ8OhXv-173" value="False" style="edgeLabel;html=1;align=center;verticalAlign=middle;resizable=0;points=[];fontSize=10;" vertex="1" connectable="0" parent="bt_qDzs2_kp6tkQ8OhXv-168">
          <mxGeometry x="0.1475" y="-4" relative="1" as="geometry">
            <mxPoint x="-12" y="-4" as="offset" />
          </mxGeometry>
        </mxCell>
        <mxCell id="bt_qDzs2_kp6tkQ8OhXv-70" value="Menu == 3&lt;br&gt;Gacha Nilai&lt;br&gt;MK" style="rhombus;whiteSpace=wrap;html=1;fontSize=10;rounded=1;" vertex="1" parent="1">
          <mxGeometry x="1540" y="-690" width="80" height="80" as="geometry" />
        </mxCell>
        <mxCell id="bt_qDzs2_kp6tkQ8OhXv-134" value="" style="edgeStyle=orthogonalEdgeStyle;rounded=0;orthogonalLoop=1;jettySize=auto;html=1;fontSize=10;" edge="1" parent="1" source="bt_qDzs2_kp6tkQ8OhXv-75" target="bt_qDzs2_kp6tkQ8OhXv-130">
          <mxGeometry relative="1" as="geometry" />
        </mxCell>
        <mxCell id="bt_qDzs2_kp6tkQ8OhXv-156" value="True" style="edgeLabel;html=1;align=center;verticalAlign=middle;resizable=0;points=[];fontSize=10;" vertex="1" connectable="0" parent="bt_qDzs2_kp6tkQ8OhXv-134">
          <mxGeometry x="0.3861" y="-1" relative="1" as="geometry">
            <mxPoint y="-34" as="offset" />
          </mxGeometry>
        </mxCell>
        <mxCell id="bt_qDzs2_kp6tkQ8OhXv-75" value="Input Menu" style="shape=parallelogram;perimeter=parallelogramPerimeter;whiteSpace=wrap;html=1;fixedSize=1;fontSize=10;rounded=1;" vertex="1" parent="1">
          <mxGeometry x="1130" y="-570" width="120" height="60" as="geometry" />
        </mxCell>
        <mxCell id="bt_qDzs2_kp6tkQ8OhXv-77" value="Input Mata Kuliah&lt;br&gt;&amp;amp;&lt;br&gt;Nama Dosen" style="shape=parallelogram;perimeter=parallelogramPerimeter;whiteSpace=wrap;html=1;fixedSize=1;fontSize=10;rounded=1;" vertex="1" parent="1">
          <mxGeometry x="1520" y="-570" width="120" height="60" as="geometry" />
        </mxCell>
        <mxCell id="bt_qDzs2_kp6tkQ8OhXv-81" value="" style="edgeStyle=orthogonalEdgeStyle;rounded=0;orthogonalLoop=1;jettySize=auto;html=1;fontSize=10;" edge="1" parent="1" source="bt_qDzs2_kp6tkQ8OhXv-67" target="bt_qDzs2_kp6tkQ8OhXv-75">
          <mxGeometry relative="1" as="geometry" />
        </mxCell>
        <mxCell id="bt_qDzs2_kp6tkQ8OhXv-181" value="True" style="edgeLabel;html=1;align=center;verticalAlign=middle;resizable=0;points=[];fontSize=10;" vertex="1" connectable="0" parent="bt_qDzs2_kp6tkQ8OhXv-81">
          <mxGeometry x="-0.2571" y="1" relative="1" as="geometry">
            <mxPoint x="-2" y="-1" as="offset" />
          </mxGeometry>
        </mxCell>
        <mxCell id="bt_qDzs2_kp6tkQ8OhXv-67" value="Menu == 2&lt;br&gt;Playlist Lagu" style="rhombus;whiteSpace=wrap;html=1;fontSize=10;rounded=1;" vertex="1" parent="1">
          <mxGeometry x="1150" y="-690" width="80" height="80" as="geometry" />
        </mxCell>
        <mxCell id="bt_qDzs2_kp6tkQ8OhXv-80" value="" style="edgeStyle=orthogonalEdgeStyle;rounded=0;orthogonalLoop=1;jettySize=auto;html=1;fontSize=10;endArrow=none;" edge="1" parent="1" source="bt_qDzs2_kp6tkQ8OhXv-70" target="bt_qDzs2_kp6tkQ8OhXv-67">
          <mxGeometry relative="1" as="geometry">
            <mxPoint x="840" y="-620" as="sourcePoint" />
            <mxPoint x="670" y="-370" as="targetPoint" />
          </mxGeometry>
        </mxCell>
        <mxCell id="bt_qDzs2_kp6tkQ8OhXv-143" value="False" style="edgeLabel;html=1;align=center;verticalAlign=middle;resizable=0;points=[];fontSize=10;" vertex="1" connectable="0" parent="bt_qDzs2_kp6tkQ8OhXv-80">
          <mxGeometry x="0.4155" y="1" relative="1" as="geometry">
            <mxPoint x="59" y="-1" as="offset" />
          </mxGeometry>
        </mxCell>
        <mxCell id="bt_qDzs2_kp6tkQ8OhXv-89" value="" style="edgeStyle=orthogonalEdgeStyle;rounded=0;orthogonalLoop=1;jettySize=auto;html=1;fontSize=10;" edge="1" parent="1" source="bt_qDzs2_kp6tkQ8OhXv-87" target="bt_qDzs2_kp6tkQ8OhXv-88">
          <mxGeometry relative="1" as="geometry" />
        </mxCell>
        <mxCell id="bt_qDzs2_kp6tkQ8OhXv-145" value="True" style="edgeLabel;html=1;align=center;verticalAlign=middle;resizable=0;points=[];fontSize=10;" vertex="1" connectable="0" parent="bt_qDzs2_kp6tkQ8OhXv-89">
          <mxGeometry x="0.3015" y="1" relative="1" as="geometry">
            <mxPoint x="-3" y="-31" as="offset" />
          </mxGeometry>
        </mxCell>
        <mxCell id="bt_qDzs2_kp6tkQ8OhXv-87" value="&lt;span style=&quot;font-size: 12px;&quot;&gt;Input Menu&lt;/span&gt;" style="shape=parallelogram;perimeter=parallelogramPerimeter;whiteSpace=wrap;html=1;fixedSize=1;fontSize=10;rounded=1;" vertex="1" parent="1">
          <mxGeometry x="480" y="-570" width="120" height="60" as="geometry" />
        </mxCell>
        <mxCell id="bt_qDzs2_kp6tkQ8OhXv-109" value="" style="edgeStyle=orthogonalEdgeStyle;rounded=0;orthogonalLoop=1;jettySize=auto;html=1;fontSize=10;" edge="1" parent="1" source="bt_qDzs2_kp6tkQ8OhXv-88" target="bt_qDzs2_kp6tkQ8OhXv-106">
          <mxGeometry relative="1" as="geometry" />
        </mxCell>
        <mxCell id="bt_qDzs2_kp6tkQ8OhXv-88" value="Menu == 1&lt;br&gt;Penjumlahan" style="rhombus;whiteSpace=wrap;html=1;fontSize=10;rounded=1;" vertex="1" parent="1">
          <mxGeometry x="500" y="-440" width="80" height="80" as="geometry" />
        </mxCell>
        <mxCell id="bt_qDzs2_kp6tkQ8OhXv-105" value="" style="edgeStyle=orthogonalEdgeStyle;rounded=0;orthogonalLoop=1;jettySize=auto;html=1;fontSize=10;" edge="1" parent="1" source="bt_qDzs2_kp6tkQ8OhXv-90" target="bt_qDzs2_kp6tkQ8OhXv-104">
          <mxGeometry relative="1" as="geometry" />
        </mxCell>
        <mxCell id="bt_qDzs2_kp6tkQ8OhXv-90" value="Menu == 2&lt;br&gt;Pengurangan" style="rhombus;whiteSpace=wrap;html=1;fontSize=10;rounded=1;" vertex="1" parent="1">
          <mxGeometry x="370" y="-440" width="80" height="80" as="geometry" />
        </mxCell>
        <mxCell id="bt_qDzs2_kp6tkQ8OhXv-110" value="" style="edgeStyle=orthogonalEdgeStyle;rounded=0;orthogonalLoop=1;jettySize=auto;html=1;fontSize=10;" edge="1" parent="1" source="bt_qDzs2_kp6tkQ8OhXv-91" target="bt_qDzs2_kp6tkQ8OhXv-107">
          <mxGeometry relative="1" as="geometry" />
        </mxCell>
        <mxCell id="bt_qDzs2_kp6tkQ8OhXv-91" value="Menu == 3&lt;br&gt;Perkalian" style="rhombus;whiteSpace=wrap;html=1;fontSize=10;rounded=1;" vertex="1" parent="1">
          <mxGeometry x="630" y="-440" width="80" height="80" as="geometry" />
        </mxCell>
        <mxCell id="bt_qDzs2_kp6tkQ8OhXv-147" value="" style="edgeStyle=orthogonalEdgeStyle;rounded=0;orthogonalLoop=1;jettySize=auto;html=1;fontSize=10;" edge="1" parent="1" source="bt_qDzs2_kp6tkQ8OhXv-92" target="bt_qDzs2_kp6tkQ8OhXv-146">
          <mxGeometry relative="1" as="geometry" />
        </mxCell>
        <mxCell id="bt_qDzs2_kp6tkQ8OhXv-92" value="Else" style="rhombus;whiteSpace=wrap;html=1;fontSize=10;rounded=1;" vertex="1" parent="1">
          <mxGeometry x="240" y="-440" width="80" height="80" as="geometry" />
        </mxCell>
        <mxCell id="bt_qDzs2_kp6tkQ8OhXv-111" value="" style="edgeStyle=orthogonalEdgeStyle;rounded=0;orthogonalLoop=1;jettySize=auto;html=1;fontSize=10;" edge="1" parent="1" source="bt_qDzs2_kp6tkQ8OhXv-93" target="bt_qDzs2_kp6tkQ8OhXv-108">
          <mxGeometry relative="1" as="geometry" />
        </mxCell>
        <mxCell id="bt_qDzs2_kp6tkQ8OhXv-93" value="Menu == 4&lt;br&gt;Pembagian" style="rhombus;whiteSpace=wrap;html=1;fontSize=10;rounded=1;" vertex="1" parent="1">
          <mxGeometry x="760" y="-440" width="80" height="80" as="geometry" />
        </mxCell>
        <mxCell id="bt_qDzs2_kp6tkQ8OhXv-94" value="" style="endArrow=none;html=1;rounded=0;fontSize=10;" edge="1" parent="1">
          <mxGeometry width="50" height="50" relative="1" as="geometry">
            <mxPoint x="400" y="-480" as="sourcePoint" />
            <mxPoint x="800" y="-480" as="targetPoint" />
          </mxGeometry>
        </mxCell>
        <mxCell id="bt_qDzs2_kp6tkQ8OhXv-96" value="" style="endArrow=classic;html=1;rounded=0;fontSize=10;entryX=0.5;entryY=0;entryDx=0;entryDy=0;" edge="1" parent="1" target="bt_qDzs2_kp6tkQ8OhXv-93">
          <mxGeometry width="50" height="50" relative="1" as="geometry">
            <mxPoint x="800" y="-480" as="sourcePoint" />
            <mxPoint x="860" y="-590" as="targetPoint" />
          </mxGeometry>
        </mxCell>
        <mxCell id="bt_qDzs2_kp6tkQ8OhXv-97" value="" style="endArrow=classic;html=1;rounded=0;fontSize=10;entryX=0.5;entryY=0;entryDx=0;entryDy=0;" edge="1" parent="1">
          <mxGeometry width="50" height="50" relative="1" as="geometry">
            <mxPoint x="669.92" y="-480" as="sourcePoint" />
            <mxPoint x="669.5799999999997" y="-440" as="targetPoint" />
          </mxGeometry>
        </mxCell>
        <mxCell id="bt_qDzs2_kp6tkQ8OhXv-98" value="" style="endArrow=classic;html=1;rounded=0;fontSize=10;entryX=0.5;entryY=0;entryDx=0;entryDy=0;" edge="1" parent="1">
          <mxGeometry width="50" height="50" relative="1" as="geometry">
            <mxPoint x="400" y="-480" as="sourcePoint" />
            <mxPoint x="399.65999999999985" y="-440" as="targetPoint" />
          </mxGeometry>
        </mxCell>
        <mxCell id="bt_qDzs2_kp6tkQ8OhXv-99" value="" style="endArrow=none;html=1;rounded=0;fontSize=10;" edge="1" parent="1">
          <mxGeometry width="50" height="50" relative="1" as="geometry">
            <mxPoint x="280" y="-540" as="sourcePoint" />
            <mxPoint x="490" y="-540" as="targetPoint" />
          </mxGeometry>
        </mxCell>
        <mxCell id="bt_qDzs2_kp6tkQ8OhXv-144" value="False" style="edgeLabel;html=1;align=center;verticalAlign=middle;resizable=0;points=[];fontSize=10;" vertex="1" connectable="0" parent="bt_qDzs2_kp6tkQ8OhXv-99">
          <mxGeometry x="0.4073" y="-1" relative="1" as="geometry">
            <mxPoint x="-38" y="-1" as="offset" />
          </mxGeometry>
        </mxCell>
        <mxCell id="bt_qDzs2_kp6tkQ8OhXv-100" value="" style="endArrow=classic;html=1;rounded=0;fontSize=10;entryX=0.5;entryY=0;entryDx=0;entryDy=0;" edge="1" parent="1">
          <mxGeometry width="50" height="50" relative="1" as="geometry">
            <mxPoint x="279.40999999999985" y="-540.0000000000001" as="sourcePoint" />
            <mxPoint x="279.40999999999985" y="-440" as="targetPoint" />
          </mxGeometry>
        </mxCell>
        <mxCell id="bt_qDzs2_kp6tkQ8OhXv-113" value="" style="edgeStyle=orthogonalEdgeStyle;rounded=0;orthogonalLoop=1;jettySize=auto;html=1;fontSize=10;" edge="1" parent="1" source="bt_qDzs2_kp6tkQ8OhXv-104" target="bt_qDzs2_kp6tkQ8OhXv-112">
          <mxGeometry relative="1" as="geometry" />
        </mxCell>
        <mxCell id="bt_qDzs2_kp6tkQ8OhXv-104" value="Input&lt;br&gt;angka 1&lt;br&gt;&amp;amp;&lt;br&gt;angka 2" style="shape=parallelogram;perimeter=parallelogramPerimeter;whiteSpace=wrap;html=1;fixedSize=1;fontSize=10;rounded=1;" vertex="1" parent="1">
          <mxGeometry x="350" y="-320" width="120" height="60" as="geometry" />
        </mxCell>
        <mxCell id="bt_qDzs2_kp6tkQ8OhXv-115" value="" style="edgeStyle=orthogonalEdgeStyle;rounded=0;orthogonalLoop=1;jettySize=auto;html=1;fontSize=10;" edge="1" parent="1" source="bt_qDzs2_kp6tkQ8OhXv-106" target="bt_qDzs2_kp6tkQ8OhXv-114">
          <mxGeometry relative="1" as="geometry" />
        </mxCell>
        <mxCell id="bt_qDzs2_kp6tkQ8OhXv-106" value="Input&lt;br&gt;angka 1&lt;br&gt;&amp;amp;&lt;br&gt;angka 2" style="shape=parallelogram;perimeter=parallelogramPerimeter;whiteSpace=wrap;html=1;fixedSize=1;fontSize=10;rounded=1;" vertex="1" parent="1">
          <mxGeometry x="480" y="-320" width="120" height="60" as="geometry" />
        </mxCell>
        <mxCell id="bt_qDzs2_kp6tkQ8OhXv-118" value="" style="edgeStyle=orthogonalEdgeStyle;rounded=0;orthogonalLoop=1;jettySize=auto;html=1;fontSize=10;" edge="1" parent="1" source="bt_qDzs2_kp6tkQ8OhXv-107" target="bt_qDzs2_kp6tkQ8OhXv-116">
          <mxGeometry relative="1" as="geometry" />
        </mxCell>
        <mxCell id="bt_qDzs2_kp6tkQ8OhXv-107" value="Input&lt;br&gt;angka 1&lt;br&gt;&amp;amp;&lt;br&gt;angka 2" style="shape=parallelogram;perimeter=parallelogramPerimeter;whiteSpace=wrap;html=1;fixedSize=1;fontSize=10;rounded=1;" vertex="1" parent="1">
          <mxGeometry x="610" y="-320" width="120" height="60" as="geometry" />
        </mxCell>
        <mxCell id="bt_qDzs2_kp6tkQ8OhXv-119" value="" style="edgeStyle=orthogonalEdgeStyle;rounded=0;orthogonalLoop=1;jettySize=auto;html=1;fontSize=10;" edge="1" parent="1" source="bt_qDzs2_kp6tkQ8OhXv-108" target="bt_qDzs2_kp6tkQ8OhXv-117">
          <mxGeometry relative="1" as="geometry" />
        </mxCell>
        <mxCell id="bt_qDzs2_kp6tkQ8OhXv-108" value="Input&lt;br&gt;angka 1&lt;br&gt;&amp;amp;&lt;br&gt;angka 2" style="shape=parallelogram;perimeter=parallelogramPerimeter;whiteSpace=wrap;html=1;fixedSize=1;fontSize=10;rounded=1;" vertex="1" parent="1">
          <mxGeometry x="740" y="-320" width="120" height="60" as="geometry" />
        </mxCell>
        <mxCell id="bt_qDzs2_kp6tkQ8OhXv-121" value="" style="edgeStyle=orthogonalEdgeStyle;rounded=0;orthogonalLoop=1;jettySize=auto;html=1;fontSize=10;" edge="1" parent="1" source="bt_qDzs2_kp6tkQ8OhXv-112">
          <mxGeometry relative="1" as="geometry">
            <mxPoint x="410" y="-100" as="targetPoint" />
          </mxGeometry>
        </mxCell>
        <mxCell id="bt_qDzs2_kp6tkQ8OhXv-112" value="Proses&lt;br&gt;Pengurangan" style="rhombus;whiteSpace=wrap;html=1;fontSize=10;rounded=1;" vertex="1" parent="1">
          <mxGeometry x="370" y="-220" width="80" height="80" as="geometry" />
        </mxCell>
        <mxCell id="bt_qDzs2_kp6tkQ8OhXv-125" value="" style="edgeStyle=orthogonalEdgeStyle;rounded=0;orthogonalLoop=1;jettySize=auto;html=1;fontSize=10;" edge="1" parent="1" source="bt_qDzs2_kp6tkQ8OhXv-114">
          <mxGeometry relative="1" as="geometry">
            <mxPoint x="540" y="-100" as="targetPoint" />
          </mxGeometry>
        </mxCell>
        <mxCell id="bt_qDzs2_kp6tkQ8OhXv-114" value="Proses&lt;br&gt;Pengurangan" style="rhombus;whiteSpace=wrap;html=1;fontSize=10;rounded=1;" vertex="1" parent="1">
          <mxGeometry x="500" y="-220" width="80" height="80" as="geometry" />
        </mxCell>
        <mxCell id="bt_qDzs2_kp6tkQ8OhXv-126" value="" style="edgeStyle=orthogonalEdgeStyle;rounded=0;orthogonalLoop=1;jettySize=auto;html=1;fontSize=10;" edge="1" parent="1" source="bt_qDzs2_kp6tkQ8OhXv-116">
          <mxGeometry relative="1" as="geometry">
            <mxPoint x="670" y="-100" as="targetPoint" />
          </mxGeometry>
        </mxCell>
        <mxCell id="bt_qDzs2_kp6tkQ8OhXv-116" value="Proses&lt;br&gt;Perkalian" style="rhombus;whiteSpace=wrap;html=1;fontSize=10;rounded=1;" vertex="1" parent="1">
          <mxGeometry x="630" y="-220" width="80" height="80" as="geometry" />
        </mxCell>
        <mxCell id="bt_qDzs2_kp6tkQ8OhXv-127" value="" style="edgeStyle=orthogonalEdgeStyle;rounded=0;orthogonalLoop=1;jettySize=auto;html=1;fontSize=10;" edge="1" parent="1" source="bt_qDzs2_kp6tkQ8OhXv-117">
          <mxGeometry relative="1" as="geometry">
            <mxPoint x="800" y="-100" as="targetPoint" />
          </mxGeometry>
        </mxCell>
        <mxCell id="bt_qDzs2_kp6tkQ8OhXv-117" value="Proses&lt;br&gt;Pembagian" style="rhombus;whiteSpace=wrap;html=1;fontSize=10;rounded=1;" vertex="1" parent="1">
          <mxGeometry x="760" y="-220" width="80" height="80" as="geometry" />
        </mxCell>
        <mxCell id="bt_qDzs2_kp6tkQ8OhXv-120" value="Hasil Pengurangan" style="whiteSpace=wrap;html=1;fontSize=10;rounded=1;" vertex="1" parent="1">
          <mxGeometry x="350" y="-100" width="120" height="60" as="geometry" />
        </mxCell>
        <mxCell id="bt_qDzs2_kp6tkQ8OhXv-122" value="Hasil Penjumlahan" style="whiteSpace=wrap;html=1;fontSize=10;rounded=1;" vertex="1" parent="1">
          <mxGeometry x="480" y="-100" width="120" height="60" as="geometry" />
        </mxCell>
        <mxCell id="bt_qDzs2_kp6tkQ8OhXv-123" value="Hasil Perkalian" style="whiteSpace=wrap;html=1;fontSize=10;rounded=1;" vertex="1" parent="1">
          <mxGeometry x="610" y="-100" width="120" height="60" as="geometry" />
        </mxCell>
        <mxCell id="bt_qDzs2_kp6tkQ8OhXv-124" value="Hasil Pembagian" style="whiteSpace=wrap;html=1;fontSize=10;rounded=1;" vertex="1" parent="1">
          <mxGeometry x="740" y="-100" width="120" height="60" as="geometry" />
        </mxCell>
        <mxCell id="bt_qDzs2_kp6tkQ8OhXv-129" value="" style="endArrow=classic;html=1;rounded=0;fontSize=10;entryX=0.5;entryY=0;entryDx=0;entryDy=0;" edge="1" parent="1" target="bt_qDzs2_kp6tkQ8OhXv-87">
          <mxGeometry width="50" height="50" relative="1" as="geometry">
            <mxPoint x="540" y="-610" as="sourcePoint" />
            <mxPoint x="590" y="-660" as="targetPoint" />
          </mxGeometry>
        </mxCell>
        <mxCell id="bt_qDzs2_kp6tkQ8OhXv-180" value="True" style="edgeLabel;html=1;align=center;verticalAlign=middle;resizable=0;points=[];fontSize=10;" vertex="1" connectable="0" parent="bt_qDzs2_kp6tkQ8OhXv-129">
          <mxGeometry x="-0.3" y="1" relative="1" as="geometry">
            <mxPoint x="-2" as="offset" />
          </mxGeometry>
        </mxCell>
        <mxCell id="bt_qDzs2_kp6tkQ8OhXv-130" value="Menu == 1&lt;br&gt;Galau" style="rhombus;whiteSpace=wrap;html=1;fontSize=10;rounded=1;" vertex="1" parent="1">
          <mxGeometry x="1150" y="-440" width="80" height="80" as="geometry" />
        </mxCell>
        <mxCell id="bt_qDzs2_kp6tkQ8OhXv-131" value="Menu == 2&lt;br&gt;Wibu" style="rhombus;whiteSpace=wrap;html=1;fontSize=10;rounded=1;" vertex="1" parent="1">
          <mxGeometry x="1020" y="-440" width="80" height="80" as="geometry" />
        </mxCell>
        <mxCell id="bt_qDzs2_kp6tkQ8OhXv-132" value="Menu == 3&lt;br&gt;Rap &amp;amp; R&amp;amp;B" style="rhombus;whiteSpace=wrap;html=1;fontSize=10;rounded=1;" vertex="1" parent="1">
          <mxGeometry x="1280" y="-440" width="80" height="80" as="geometry" />
        </mxCell>
        <mxCell id="bt_qDzs2_kp6tkQ8OhXv-133" value="Menu == 4&lt;br&gt;Rock" style="rhombus;whiteSpace=wrap;html=1;fontSize=10;rounded=1;" vertex="1" parent="1">
          <mxGeometry x="1410" y="-440" width="80" height="80" as="geometry" />
        </mxCell>
        <mxCell id="bt_qDzs2_kp6tkQ8OhXv-135" value="" style="endArrow=none;html=1;rounded=0;fontSize=10;" edge="1" parent="1">
          <mxGeometry width="50" height="50" relative="1" as="geometry">
            <mxPoint x="1060" y="-480" as="sourcePoint" />
            <mxPoint x="1450" y="-480.0000000000002" as="targetPoint" />
          </mxGeometry>
        </mxCell>
        <mxCell id="bt_qDzs2_kp6tkQ8OhXv-136" value="" style="endArrow=classic;html=1;rounded=0;fontSize=10;entryX=0.5;entryY=0;entryDx=0;entryDy=0;" edge="1" parent="1">
          <mxGeometry width="50" height="50" relative="1" as="geometry">
            <mxPoint x="1059.26" y="-480.0000000000002" as="sourcePoint" />
            <mxPoint x="1059.26" y="-440.0000000000002" as="targetPoint" />
          </mxGeometry>
        </mxCell>
        <mxCell id="bt_qDzs2_kp6tkQ8OhXv-137" value="" style="endArrow=classic;html=1;rounded=0;fontSize=10;entryX=0.5;entryY=0;entryDx=0;entryDy=0;" edge="1" parent="1">
          <mxGeometry width="50" height="50" relative="1" as="geometry">
            <mxPoint x="1319.7100000000003" y="-480.0000000000002" as="sourcePoint" />
            <mxPoint x="1319.7100000000003" y="-440.0000000000002" as="targetPoint" />
          </mxGeometry>
        </mxCell>
        <mxCell id="bt_qDzs2_kp6tkQ8OhXv-138" value="" style="endArrow=classic;html=1;rounded=0;fontSize=10;entryX=0.5;entryY=0;entryDx=0;entryDy=0;" edge="1" parent="1">
          <mxGeometry width="50" height="50" relative="1" as="geometry">
            <mxPoint x="1449.57" y="-480.0000000000002" as="sourcePoint" />
            <mxPoint x="1449.57" y="-440.0000000000002" as="targetPoint" />
          </mxGeometry>
        </mxCell>
        <mxCell id="bt_qDzs2_kp6tkQ8OhXv-139" value="Menu == 2&lt;br&gt;Pengurangan" style="rhombus;whiteSpace=wrap;html=1;fontSize=10;rounded=1;" vertex="1" parent="1">
          <mxGeometry x="890" y="-440" width="80" height="80" as="geometry" />
        </mxCell>
        <mxCell id="bt_qDzs2_kp6tkQ8OhXv-146" value="Output&lt;br&gt;&quot;Menu tidak tersedia&quot;" style="shape=parallelogram;perimeter=parallelogramPerimeter;whiteSpace=wrap;html=1;fixedSize=1;fontSize=10;rounded=1;" vertex="1" parent="1">
          <mxGeometry x="220" y="-320" width="120" height="60" as="geometry" />
        </mxCell>
        <mxCell id="bt_qDzs2_kp6tkQ8OhXv-148" value="Output&lt;br&gt;&quot;Menu tidak tersedia&quot;" style="shape=parallelogram;perimeter=parallelogramPerimeter;whiteSpace=wrap;html=1;fixedSize=1;fontSize=10;rounded=1;" vertex="1" parent="1">
          <mxGeometry x="870" y="-320" width="120" height="60" as="geometry" />
        </mxCell>
        <mxCell id="bt_qDzs2_kp6tkQ8OhXv-150" value="" style="edgeStyle=orthogonalEdgeStyle;rounded=0;orthogonalLoop=1;jettySize=auto;html=1;fontSize=10;" edge="1" parent="1">
          <mxGeometry relative="1" as="geometry">
            <mxPoint x="929.57" y="-360" as="sourcePoint" />
            <mxPoint x="929.57" y="-320" as="targetPoint" />
          </mxGeometry>
        </mxCell>
        <mxCell id="bt_qDzs2_kp6tkQ8OhXv-151" value="" style="edgeStyle=orthogonalEdgeStyle;rounded=0;orthogonalLoop=1;jettySize=auto;html=1;fontSize=10;" edge="1" parent="1">
          <mxGeometry relative="1" as="geometry">
            <mxPoint x="1060.0000000000002" y="-360" as="sourcePoint" />
            <mxPoint x="1060.0000000000002" y="-320" as="targetPoint" />
          </mxGeometry>
        </mxCell>
        <mxCell id="bt_qDzs2_kp6tkQ8OhXv-152" value="Output&lt;br&gt;Playlist Lagu Wibu" style="shape=parallelogram;perimeter=parallelogramPerimeter;whiteSpace=wrap;html=1;fixedSize=1;fontSize=10;rounded=1;" vertex="1" parent="1">
          <mxGeometry x="1000" y="-320" width="120" height="60" as="geometry" />
        </mxCell>
        <mxCell id="bt_qDzs2_kp6tkQ8OhXv-153" value="" style="endArrow=none;html=1;rounded=0;fontSize=10;entryX=0;entryY=0.5;entryDx=0;entryDy=0;" edge="1" parent="1" target="bt_qDzs2_kp6tkQ8OhXv-75">
          <mxGeometry width="50" height="50" relative="1" as="geometry">
            <mxPoint x="930" y="-540" as="sourcePoint" />
            <mxPoint x="1120" y="-540" as="targetPoint" />
          </mxGeometry>
        </mxCell>
        <mxCell id="bt_qDzs2_kp6tkQ8OhXv-155" value="False" style="edgeLabel;html=1;align=center;verticalAlign=middle;resizable=0;points=[];fontSize=10;" vertex="1" connectable="0" parent="bt_qDzs2_kp6tkQ8OhXv-153">
          <mxGeometry x="0.1913" relative="1" as="geometry">
            <mxPoint x="-13" as="offset" />
          </mxGeometry>
        </mxCell>
        <mxCell id="bt_qDzs2_kp6tkQ8OhXv-154" value="" style="endArrow=classic;html=1;rounded=0;fontSize=10;" edge="1" parent="1" target="bt_qDzs2_kp6tkQ8OhXv-139">
          <mxGeometry width="50" height="50" relative="1" as="geometry">
            <mxPoint x="930" y="-540" as="sourcePoint" />
            <mxPoint x="1060" y="-410" as="targetPoint" />
          </mxGeometry>
        </mxCell>
        <mxCell id="bt_qDzs2_kp6tkQ8OhXv-157" value="Output&lt;br&gt;Playlist Lagu Wibu" style="shape=parallelogram;perimeter=parallelogramPerimeter;whiteSpace=wrap;html=1;fixedSize=1;fontSize=10;rounded=1;" vertex="1" parent="1">
          <mxGeometry x="1130" y="-320" width="120" height="60" as="geometry" />
        </mxCell>
        <mxCell id="bt_qDzs2_kp6tkQ8OhXv-158" value="" style="edgeStyle=orthogonalEdgeStyle;rounded=0;orthogonalLoop=1;jettySize=auto;html=1;fontSize=10;" edge="1" parent="1">
          <mxGeometry relative="1" as="geometry">
            <mxPoint x="1189.57" y="-360" as="sourcePoint" />
            <mxPoint x="1189.57" y="-320" as="targetPoint" />
          </mxGeometry>
        </mxCell>
        <mxCell id="bt_qDzs2_kp6tkQ8OhXv-159" value="Output&lt;br&gt;Playlist Lagu&lt;br&gt;Rap &amp;amp; R&amp;amp;B" style="shape=parallelogram;perimeter=parallelogramPerimeter;whiteSpace=wrap;html=1;fixedSize=1;fontSize=10;rounded=1;" vertex="1" parent="1">
          <mxGeometry x="1260" y="-320" width="120" height="60" as="geometry" />
        </mxCell>
        <mxCell id="bt_qDzs2_kp6tkQ8OhXv-161" value="" style="edgeStyle=orthogonalEdgeStyle;rounded=0;orthogonalLoop=1;jettySize=auto;html=1;fontSize=10;" edge="1" parent="1">
          <mxGeometry relative="1" as="geometry">
            <mxPoint x="1319.5699999999997" y="-360" as="sourcePoint" />
            <mxPoint x="1319.5699999999997" y="-320" as="targetPoint" />
          </mxGeometry>
        </mxCell>
        <mxCell id="bt_qDzs2_kp6tkQ8OhXv-162" value="" style="edgeStyle=orthogonalEdgeStyle;rounded=0;orthogonalLoop=1;jettySize=auto;html=1;fontSize=10;" edge="1" parent="1">
          <mxGeometry relative="1" as="geometry">
            <mxPoint x="1449.5699999999997" y="-360" as="sourcePoint" />
            <mxPoint x="1449.5699999999997" y="-320" as="targetPoint" />
          </mxGeometry>
        </mxCell>
        <mxCell id="bt_qDzs2_kp6tkQ8OhXv-163" value="Output&lt;br&gt;Playlist Lagu Rock" style="shape=parallelogram;perimeter=parallelogramPerimeter;whiteSpace=wrap;html=1;fixedSize=1;fontSize=10;rounded=1;" vertex="1" parent="1">
          <mxGeometry x="1390" y="-320" width="120" height="60" as="geometry" />
        </mxCell>
        <mxCell id="bt_qDzs2_kp6tkQ8OhXv-164" value="" style="edgeStyle=orthogonalEdgeStyle;rounded=0;orthogonalLoop=1;jettySize=auto;html=1;fontSize=10;" edge="1" parent="1">
          <mxGeometry relative="1" as="geometry">
            <mxPoint x="1579.57" y="-609.9999999999999" as="sourcePoint" />
            <mxPoint x="1579.57" y="-570" as="targetPoint" />
          </mxGeometry>
        </mxCell>
        <mxCell id="bt_qDzs2_kp6tkQ8OhXv-214" value="True" style="edgeLabel;html=1;align=center;verticalAlign=middle;resizable=0;points=[];fontSize=10;" vertex="1" connectable="0" parent="bt_qDzs2_kp6tkQ8OhXv-164">
          <mxGeometry x="0.1722" y="-1" relative="1" as="geometry">
            <mxPoint x="-1" y="-10" as="offset" />
          </mxGeometry>
        </mxCell>
        <mxCell id="bt_qDzs2_kp6tkQ8OhXv-166" value="" style="endArrow=none;html=1;rounded=0;fontSize=10;" edge="1" parent="1" source="bt_qDzs2_kp6tkQ8OhXv-20">
          <mxGeometry width="50" height="50" relative="1" as="geometry">
            <mxPoint x="450" y="-600" as="sourcePoint" />
            <mxPoint x="500" y="-650" as="targetPoint" />
          </mxGeometry>
        </mxCell>
        <mxCell id="bt_qDzs2_kp6tkQ8OhXv-167" value="Default" style="rhombus;whiteSpace=wrap;html=1;fontSize=10;rounded=1;" vertex="1" parent="1">
          <mxGeometry x="1680" y="-690" width="80" height="80" as="geometry" />
        </mxCell>
        <mxCell id="bt_qDzs2_kp6tkQ8OhXv-169" value="Output&lt;br&gt;&quot;Menu Tidak Tersedia&quot;" style="shape=parallelogram;perimeter=parallelogramPerimeter;whiteSpace=wrap;html=1;fixedSize=1;fontSize=10;rounded=1;" vertex="1" parent="1">
          <mxGeometry x="1660" y="-570" width="120" height="60" as="geometry" />
        </mxCell>
        <mxCell id="bt_qDzs2_kp6tkQ8OhXv-170" value="Nilai yang keluar secara&lt;br&gt;random" style="whiteSpace=wrap;html=1;fontSize=10;rounded=1;" vertex="1" parent="1">
          <mxGeometry x="1520" y="-470" width="120" height="60" as="geometry" />
        </mxCell>
        <mxCell id="bt_qDzs2_kp6tkQ8OhXv-171" value="" style="edgeStyle=orthogonalEdgeStyle;rounded=0;orthogonalLoop=1;jettySize=auto;html=1;fontSize=10;entryX=0.5;entryY=0;entryDx=0;entryDy=0;" edge="1" parent="1" target="bt_qDzs2_kp6tkQ8OhXv-170">
          <mxGeometry relative="1" as="geometry">
            <mxPoint x="1579.5699999999997" y="-509.9999999999999" as="sourcePoint" />
            <mxPoint x="1579.5699999999997" y="-470" as="targetPoint" />
          </mxGeometry>
        </mxCell>
        <mxCell id="bt_qDzs2_kp6tkQ8OhXv-175" value="" style="edgeStyle=orthogonalEdgeStyle;rounded=0;orthogonalLoop=1;jettySize=auto;html=1;fontSize=10;" edge="1" parent="1">
          <mxGeometry relative="1" as="geometry">
            <mxPoint x="1719.6699999999996" y="-609.9999999999999" as="sourcePoint" />
            <mxPoint x="1719.6699999999996" y="-570" as="targetPoint" />
          </mxGeometry>
        </mxCell>
        <mxCell id="bt_qDzs2_kp6tkQ8OhXv-215" value="True" style="edgeLabel;html=1;align=center;verticalAlign=middle;resizable=0;points=[];fontSize=10;" vertex="1" connectable="0" parent="bt_qDzs2_kp6tkQ8OhXv-175">
          <mxGeometry x="0.2198" relative="1" as="geometry">
            <mxPoint x="-1" y="-11" as="offset" />
          </mxGeometry>
        </mxCell>
        <mxCell id="bt_qDzs2_kp6tkQ8OhXv-176" value="Output&lt;br&gt;&quot;Username atau Password tidak&lt;br&gt;valid&quot;" style="shape=parallelogram;perimeter=parallelogramPerimeter;whiteSpace=wrap;html=1;fixedSize=1;fontSize=10;" vertex="1" parent="1">
          <mxGeometry x="1450" y="-802.5" width="120" height="60" as="geometry" />
        </mxCell>
        <mxCell id="bt_qDzs2_kp6tkQ8OhXv-182" value="Selesai" style="ellipse;whiteSpace=wrap;html=1;" vertex="1" parent="1">
          <mxGeometry x="1130" y="-20" width="120" height="80" as="geometry" />
        </mxCell>
        <mxCell id="bt_qDzs2_kp6tkQ8OhXv-200" value="" style="endArrow=none;html=1;rounded=0;fontSize=10;" edge="1" parent="1">
          <mxGeometry width="50" height="50" relative="1" as="geometry">
            <mxPoint x="1720" y="-509.0000000000002" as="sourcePoint" />
            <mxPoint x="1720" y="20" as="targetPoint" />
          </mxGeometry>
        </mxCell>
        <mxCell id="bt_qDzs2_kp6tkQ8OhXv-201" value="" style="endArrow=classic;html=1;rounded=0;fontSize=10;entryX=1;entryY=0.5;entryDx=0;entryDy=0;" edge="1" parent="1" target="bt_qDzs2_kp6tkQ8OhXv-182">
          <mxGeometry width="50" height="50" relative="1" as="geometry">
            <mxPoint x="1800" y="20" as="sourcePoint" />
            <mxPoint x="1719.5" y="299.9999999999998" as="targetPoint" />
          </mxGeometry>
        </mxCell>
        <mxCell id="bt_qDzs2_kp6tkQ8OhXv-202" value="" style="endArrow=none;html=1;rounded=0;fontSize=10;" edge="1" parent="1">
          <mxGeometry width="50" height="50" relative="1" as="geometry">
            <mxPoint x="1450" y="20" as="sourcePoint" />
            <mxPoint x="1450" y="-260" as="targetPoint" />
          </mxGeometry>
        </mxCell>
        <mxCell id="bt_qDzs2_kp6tkQ8OhXv-203" value="" style="endArrow=none;html=1;rounded=0;fontSize=10;" edge="1" parent="1">
          <mxGeometry width="50" height="50" relative="1" as="geometry">
            <mxPoint x="1580" y="20" as="sourcePoint" />
            <mxPoint x="1579.41" y="-410.0000000000002" as="targetPoint" />
          </mxGeometry>
        </mxCell>
        <mxCell id="bt_qDzs2_kp6tkQ8OhXv-204" value="" style="endArrow=none;html=1;rounded=0;fontSize=10;" edge="1" parent="1">
          <mxGeometry width="50" height="50" relative="1" as="geometry">
            <mxPoint x="1319.41" y="19.999999999999773" as="sourcePoint" />
            <mxPoint x="1319.41" y="-260.0000000000002" as="targetPoint" />
          </mxGeometry>
        </mxCell>
        <mxCell id="bt_qDzs2_kp6tkQ8OhXv-205" value="" style="endArrow=none;html=1;rounded=0;fontSize=10;" edge="1" parent="1">
          <mxGeometry width="50" height="50" relative="1" as="geometry">
            <mxPoint x="1189" y="-20" as="sourcePoint" />
            <mxPoint x="1189.4099999999999" y="-260.0000000000002" as="targetPoint" />
          </mxGeometry>
        </mxCell>
        <mxCell id="bt_qDzs2_kp6tkQ8OhXv-206" value="" style="endArrow=none;html=1;rounded=0;fontSize=10;" edge="1" parent="1">
          <mxGeometry width="50" height="50" relative="1" as="geometry">
            <mxPoint x="1059.4099999999999" y="19.999999999999773" as="sourcePoint" />
            <mxPoint x="1059.4099999999999" y="-260.0000000000002" as="targetPoint" />
          </mxGeometry>
        </mxCell>
        <mxCell id="bt_qDzs2_kp6tkQ8OhXv-207" value="" style="endArrow=none;html=1;rounded=0;fontSize=10;" edge="1" parent="1">
          <mxGeometry width="50" height="50" relative="1" as="geometry">
            <mxPoint x="929.4099999999999" y="19.999999999999773" as="sourcePoint" />
            <mxPoint x="929.4099999999999" y="-260.0000000000002" as="targetPoint" />
          </mxGeometry>
        </mxCell>
        <mxCell id="bt_qDzs2_kp6tkQ8OhXv-208" value="" style="endArrow=none;html=1;rounded=0;fontSize=10;" edge="1" parent="1">
          <mxGeometry width="50" height="50" relative="1" as="geometry">
            <mxPoint x="800" y="20" as="sourcePoint" />
            <mxPoint x="800" y="-40" as="targetPoint" />
          </mxGeometry>
        </mxCell>
        <mxCell id="bt_qDzs2_kp6tkQ8OhXv-209" value="" style="endArrow=none;html=1;rounded=0;fontSize=10;" edge="1" parent="1">
          <mxGeometry width="50" height="50" relative="1" as="geometry">
            <mxPoint x="669.41" y="19.999999999999773" as="sourcePoint" />
            <mxPoint x="669.41" y="-40.00000000000023" as="targetPoint" />
          </mxGeometry>
        </mxCell>
        <mxCell id="bt_qDzs2_kp6tkQ8OhXv-210" value="" style="endArrow=none;html=1;rounded=0;fontSize=10;" edge="1" parent="1">
          <mxGeometry width="50" height="50" relative="1" as="geometry">
            <mxPoint x="539.4100000000001" y="19.999999999999773" as="sourcePoint" />
            <mxPoint x="539.4100000000001" y="-40.00000000000023" as="targetPoint" />
          </mxGeometry>
        </mxCell>
        <mxCell id="bt_qDzs2_kp6tkQ8OhXv-211" value="" style="endArrow=none;html=1;rounded=0;fontSize=10;" edge="1" parent="1">
          <mxGeometry width="50" height="50" relative="1" as="geometry">
            <mxPoint x="409.40999999999985" y="19.999999999999773" as="sourcePoint" />
            <mxPoint x="409.40999999999985" y="-40.00000000000023" as="targetPoint" />
          </mxGeometry>
        </mxCell>
        <mxCell id="bt_qDzs2_kp6tkQ8OhXv-212" value="" style="endArrow=none;html=1;rounded=0;fontSize=10;" edge="1" parent="1">
          <mxGeometry width="50" height="50" relative="1" as="geometry">
            <mxPoint x="279.40999999999985" y="19.999999999999773" as="sourcePoint" />
            <mxPoint x="279.40999999999985" y="-260.0000000000002" as="targetPoint" />
          </mxGeometry>
        </mxCell>
        <mxCell id="bt_qDzs2_kp6tkQ8OhXv-213" value="" style="endArrow=classic;html=1;rounded=0;fontSize=10;" edge="1" parent="1">
          <mxGeometry width="50" height="50" relative="1" as="geometry">
            <mxPoint x="280" y="20" as="sourcePoint" />
            <mxPoint x="1130" y="20" as="targetPoint" />
          </mxGeometry>
        </mxCell>
        <mxCell id="bt_qDzs2_kp6tkQ8OhXv-217" value="" style="endArrow=none;html=1;rounded=0;fontSize=10;" edge="1" parent="1">
          <mxGeometry width="50" height="50" relative="1" as="geometry">
            <mxPoint x="1560" y="-770" as="sourcePoint" />
            <mxPoint x="1800" y="-770" as="targetPoint" />
          </mxGeometry>
        </mxCell>
        <mxCell id="bt_qDzs2_kp6tkQ8OhXv-218" value="" style="endArrow=none;html=1;rounded=0;fontSize=10;" edge="1" parent="1">
          <mxGeometry width="50" height="50" relative="1" as="geometry">
            <mxPoint x="1800" y="20" as="sourcePoint" />
            <mxPoint x="1800" y="-770" as="targetPoint" />
          </mxGeometry>
        </mxCell>
      </root>
    </mxGraphModel>
  </diagram>
</mxfile>
